<?xml version="1.0" encoding="UTF-8"?>
<svg width="18px" height="19px" viewBox="0 0 18 19" version="1.1" xmlns="http://www.w3.org/2000/svg" xmlns:xlink="http://www.w3.org/1999/xlink">
    <title>gear</title>
    <defs>
        <rect id="path-1" x="0" y="0" width="208" height="1024"></rect>
        <filter x="-0.2%" y="-0.0%" width="101.0%" height="100.1%" filterUnits="objectBoundingBox" id="filter-2">
            <feOffset dx="1" dy="0" in="SourceAlpha" result="shadowOffsetOuter1"></feOffset>
            <feColorMatrix values="0 0 0 0 0.898039216   0 0 0 0 0.898039216   0 0 0 0 0.898039216  0 0 0 1 0" type="matrix" in="shadowOffsetOuter1"></feColorMatrix>
        </filter>
    </defs>
    <g id="Page-1" stroke="none" stroke-width="1" fill="none" fill-rule="evenodd">
        <g id="Desktop" transform="translate(-31.000000, -388.000000)">
            <g id="bg">
                <g id="Rectangle">
                    <use fill="black" fill-opacity="1" filter="url(#filter-2)" xlink:href="#path-1"></use>
                    <use fill="#FFFFFF" fill-rule="evenodd" xlink:href="#path-1"></use>
                </g>
            </g>
            <g id="nav" transform="translate(0.000000, 150.000000)" fill="#000000" fill-rule="nonzero">
                <g id="settings-copy" transform="translate(31.000000, 238.000000)">
                    <g id="gear" transform="translate(0.000000, -0.000000)">
                        <path d="M17.219988,9.216 C17.219988,8.50572 17.129448,7.803072 16.950564,7.122168 L17.990964,6.356772 L15.971616,2.859192 L14.786748,3.378312 C13.77378,2.372544 12.533364,1.65582 11.161944,1.283832 L11.019348,0 L6.980652,0 L6.83802,1.283832 C5.466564,1.65582 4.226184,2.372544 3.213216,3.378312 L2.028384,2.859192 L0.009036,6.356772 L1.049436,7.122168 C0.870516,7.803072 0.780012,8.50572 0.780012,9.216 C0.780012,9.92628 0.870552,10.628928 1.049436,11.309832 L0.009036,12.075192 L2.028384,15.572772 L3.213216,15.053652 C4.22622,16.059456 5.4666,16.77618 6.83802,17.148132 L6.980652,18.432 L11.019348,18.432 L11.16198,17.148132 C12.533436,16.77618 13.773816,16.05942 14.786784,15.053652 L15.971616,15.572772 L17.990964,12.075192 L16.950564,11.309832 C17.129448,10.628928 17.219988,9.92628 17.219988,9.216 L17.219988,9.216 Z M10.550196,16.186788 L10.17288,16.270308 L10.052676,17.352 L7.947324,17.352 L7.82712,16.270308 L7.449804,16.186788 C6.0192,15.870168 4.736052,15.128784 3.73914,14.042808 L3.47814,13.75848 L2.480364,14.195628 L1.427688,12.372336 L2.303388,11.728152 L2.187612,11.359944 C1.970244,10.668492 1.860012,9.94716 1.860012,9.216 C1.860012,8.484804 1.970244,7.763472 2.187612,7.072056 L2.303388,6.703848 L1.427688,6.059664 L2.480364,4.236372 L3.47814,4.67352 L3.73914,4.389192 C4.736052,3.303216 6.0192,2.561832 7.449804,2.245212 L7.82712,2.161692 L7.947324,1.08 L10.052676,1.08 L10.17288,2.161692 L10.550196,2.245212 C11.9808,2.561868 13.263948,3.303252 14.26086,4.389192 L14.52186,4.67352 L15.519636,4.236372 L16.572312,6.059664 L15.696612,6.703848 L15.812388,7.072056 C16.029756,7.763508 16.139988,8.48484 16.139988,9.216 C16.139988,9.94716 16.029792,10.668492 15.812388,11.359944 L15.696612,11.728152 L16.572312,12.372336 L15.519636,14.195628 L14.52186,13.75848 L14.26086,14.042808 C13.263948,15.128784 11.980836,15.870168 10.550196,16.186788 L10.550196,16.186788 Z" id="Shape"></path>
                        <polygon id="Path" points="6.856128 7.97976 6.08454 7.22412 4.109472 9.240804 6.126192 11.215872 6.881832 10.444248 5.636736 9.224856"></polygon>
                        <polygon id="Path" points="11.143872 7.97976 12.363264 9.224856 11.118168 10.444248 11.873808 11.215872 13.890528 9.240804 11.91546 7.22412"></polygon>
                        <polygon id="Path" transform="translate(9.004119, 9.211910) rotate(-78.117241) translate(-9.004119, -9.211910) " points="5.27452232 8.67165517 12.733715 8.67165517 12.733715 9.75216466 5.27452232 9.75216466"></polygon>
                    </g>
                </g>
            </g>
        </g>
    </g>
</svg>