<?xml version="1.0" encoding="UTF-8"?>
<svg width="7px" height="11px" viewBox="0 0 7 11" version="1.1" xmlns="http://www.w3.org/2000/svg" xmlns:xlink="http://www.w3.org/1999/xlink">
    <title>multimedia</title>
    <defs>
        <rect id="path-1" x="0" y="0" width="208" height="1024"></rect>
        <filter x="-0.2%" y="-0.0%" width="101.0%" height="100.1%" filterUnits="objectBoundingBox" id="filter-2">
            <feOffset dx="1" dy="0" in="SourceAlpha" result="shadowOffsetOuter1"></feOffset>
            <feColorMatrix values="0 0 0 0 0.898039216   0 0 0 0 0.898039216   0 0 0 0 0.898039216  0 0 0 1 0" type="matrix" in="shadowOffsetOuter1"></feColorMatrix>
        </filter>
    </defs>
    <g id="Page-1" stroke="none" stroke-width="1" fill="none" fill-rule="evenodd">
        <g id="Desktop" transform="translate(-178.000000, -180.000000)">
            <g id="bg">
                <g id="Rectangle">
                    <use fill="black" fill-opacity="1" filter="url(#filter-2)" xlink:href="#path-1"></use>
                    <use fill="#FFFFFF" fill-rule="evenodd" xlink:href="#path-1"></use>
                </g>
            </g>
            <g id="nav" transform="translate(0.000000, 150.000000)" fill="#000000" fill-rule="nonzero">
                <g id="multimedia" transform="translate(181.000000, 35.709552) scale(-1, 1) rotate(90.000000) translate(-181.000000, -35.709552) translate(176.000000, 33.000000)">
                    <path d="M9.85877193,0.128499025 C9.69617934,-0.0340935673 9.43335283,-0.0340935673 9.27076023,0.128499025 L4.99035088,4.40888889 L0.709961014,0.128499025 C0.547368421,-0.0340935673 0.28454191,-0.0340935673 0.121949318,0.128499025 C-0.0406432749,0.291091618 -0.0406432749,0.553918129 0.121949318,0.716510721 L4.69635478,5.29091618 C4.77744639,5.3720078 4.88389864,5.41276803 4.99037037,5.41276803 C5.09684211,5.41276803 5.20329435,5.3720078 5.28438596,5.29091618 L9.85879142,0.716510721 C10.0213645,0.553918129 10.0213645,0.291091618 9.85877193,0.128499025 Z" id="Path"></path>
                </g>
            </g>
        </g>
    </g>
</svg>