<?xml version="1.0" encoding="UTF-8"?>
<svg width="18px" height="20px" viewBox="0 0 18 20" version="1.1" xmlns="http://www.w3.org/2000/svg" xmlns:xlink="http://www.w3.org/1999/xlink">
    <title>storing</title>
    <defs>
        <rect id="path-1" x="0" y="0" width="208" height="1024"></rect>
        <filter x="-0.2%" y="-0.0%" width="101.0%" height="100.1%" filterUnits="objectBoundingBox" id="filter-2">
            <feOffset dx="1" dy="0" in="SourceAlpha" result="shadowOffsetOuter1"></feOffset>
            <feColorMatrix values="0 0 0 0 0.898039216   0 0 0 0 0.898039216   0 0 0 0 0.898039216  0 0 0 1 0" type="matrix" in="shadowOffsetOuter1"></feColorMatrix>
        </filter>
    </defs>
    <g id="Page-1" stroke="none" stroke-width="1" fill="none" fill-rule="evenodd">
        <g id="Desktop" transform="translate(-31.000000, -245.000000)">
            <g id="bg">
                <g id="Rectangle">
                    <use fill="black" fill-opacity="1" filter="url(#filter-2)" xlink:href="#path-1"></use>
                    <use fill="#FFFFFF" fill-rule="evenodd" xlink:href="#path-1"></use>
                </g>
            </g>
            <g id="nav" transform="translate(0.000000, 150.000000)" fill="#000000" fill-rule="nonzero">
                <g id="backup" transform="translate(31.000000, 95.000000)">
                    <g id="storing" transform="translate(0.000000, -0.000000)">
                        <path d="M10.65825,10.7301375 C10.677675,10.7301375 10.6973625,10.72875 10.7171625,10.7258625 C10.7326125,10.72365 10.7479125,10.7213625 10.7631,10.7189625 C10.98675,10.6840125 11.13975,10.4743125 11.1047625,10.2506625 C11.0698125,10.026975 10.8601875,9.8739375 10.636425,9.909 C10.6245,9.9108375 10.6125,9.9126375 10.6003875,9.9144 C10.3762875,9.94665 10.2207375,10.1544 10.25295,10.3785375 C10.282425,10.5828375 10.4577375,10.7301375 10.65825,10.7301375 Z" id="Path"></path>
                        <path d="M17.5654875,18.3801375 L9.40995,18.3801375 L9.40995,16.713 C10.6793625,16.677 11.8649625,16.4748375 12.7837875,16.13355 C14.251275,15.5884875 14.5593375,14.8882875 14.5593375,14.3968125 L14.5593375,2.3225625 C14.5593375,1.8310875 14.251275,1.1308875 12.7837875,0.585825 C11.7666,0.20805 10.422825,0 9,0 C7.5769125,0 6.233025,0.20805 5.2159875,0.585825 C3.7486875,1.13085 3.4407,1.8310875 3.4407,2.3225625 L3.4407,14.3968125 C3.4407,14.8882875 3.7486875,15.588525 5.2159875,16.13355 C6.1347375,16.4748375 7.32045,16.6769625 8.59005,16.713 L8.59005,18.3801 L0.434475,18.3801 C0.2080875,18.3801 0.024525,18.563625 0.024525,18.79005 C0.024525,19.016475 0.20805,19.2 0.434475,19.2 L17.56545,19.2 C17.7918,19.2 17.9754,19.016475 17.9754,18.79005 C17.9754,18.563625 17.7918375,18.3801375 17.5654875,18.3801375 Z M9,0.8198625 C11.8931625,0.8198625 13.7394,1.7098875 13.7394,2.3225625 C13.7394,2.9352375 11.8930875,3.8252625 9,3.8252625 C6.106875,3.8252625 4.2605625,2.9353125 4.2605625,2.3225625 C4.2605625,1.70985 6.1068,0.8198625 9,0.8198625 Z M4.2605625,3.5886 C4.5049875,3.7520625 4.8178125,3.9114375 5.2159875,4.0593375 C6.2330625,4.437075 7.5769125,4.6451625 9,4.6451625 C10.4228625,4.6451625 11.7666,4.4371125 12.78375,4.0593375 C13.182075,3.9114 13.4949,3.7520625 13.7394375,3.588525 L13.7394375,5.4121875 L13.7394375,5.4121875 C13.7394375,6.0248625 11.893125,6.9148875 9,6.9148875 C6.106875,6.9148875 4.2605625,6.0249375 4.2605625,5.4121875 L4.2605625,3.5886 Z M4.260525,9.7674375 C4.5050625,9.9310875 4.817475,10.0905375 5.21595,10.2385875 C6.233025,10.6164 7.576875,10.8244125 8.9999625,10.8244125 C9.2263125,10.8244125 9.4099125,10.6408875 9.4099125,10.4144625 C9.4099125,10.1880375 9.22635,10.0045125 8.9999625,10.0045125 C6.1068,10.0045125 4.260525,9.114525 4.260525,8.5018125 L4.260525,6.677775 C4.5050625,6.841425 4.817475,7.000875 5.21595,7.148925 C6.233025,7.5266625 7.576875,7.73475 8.9999625,7.73475 C10.422825,7.73475 11.7665625,7.5267 12.7837125,7.148925 C13.1823375,7.0009125 13.4947875,6.84135 13.7394,6.6777 L13.7394,8.501775 C13.7394,8.8024125 13.2429,9.256275 12.1336125,9.5923125 C11.9169375,9.6579375 11.7945,9.8868 11.8601625,10.1035125 C11.913825,10.28055 12.0763875,10.3947 12.2523,10.3947 C12.2916375,10.3947 12.3317625,10.389 12.3712875,10.377 C12.9297375,10.2078375 13.3884,10.0011375 13.7394,9.76485 L13.7394,11.591475 C13.7394,12.20415 11.8930875,13.094175 8.9999625,13.094175 C6.1068375,13.094175 4.260525,12.204225 4.260525,11.591475 L4.260525,9.7674375 Z M4.260525,14.3968125 L4.260525,12.857025 C4.5050625,13.020675 4.817475,13.180125 5.21595,13.328175 C6.233025,13.7059125 7.576875,13.914 8.9999625,13.914 C10.422825,13.914 11.7665625,13.70595 12.7837125,13.328175 C13.1823375,13.1801625 13.4947875,13.0206 13.7394,12.85695 L13.7394,14.3968125 C13.7394,15.0094875 11.8930875,15.8995125 9,15.8995125 C6.1068,15.8995125 4.260525,15.009525 4.260525,14.3968125 Z" id="Shape"></path>
                    </g>
                </g>
            </g>
        </g>
    </g>
</svg>