<?xml version="1.0" encoding="UTF-8"?>
<svg width="18px" height="15px" viewBox="0 0 18 15" version="1.1" xmlns="http://www.w3.org/2000/svg" xmlns:xlink="http://www.w3.org/1999/xlink">
    <title>transportation</title>
    <defs>
        <rect id="path-1" x="0" y="0" width="208" height="1024"></rect>
        <filter x="-0.2%" y="-0.0%" width="101.0%" height="100.1%" filterUnits="objectBoundingBox" id="filter-2">
            <feOffset dx="1" dy="0" in="SourceAlpha" result="shadowOffsetOuter1"></feOffset>
            <feColorMatrix values="0 0 0 0 0.898039216   0 0 0 0 0.898039216   0 0 0 0 0.898039216  0 0 0 1 0" type="matrix" in="shadowOffsetOuter1"></feColorMatrix>
        </filter>
    </defs>
    <g id="Page-1" stroke="none" stroke-width="1" fill="none" fill-rule="evenodd">
        <g id="Desktop" transform="translate(-31.000000, -178.000000)">
            <g id="bg">
                <g id="Rectangle">
                    <use fill="black" fill-opacity="1" filter="url(#filter-2)" xlink:href="#path-1"></use>
                    <use fill="#FFFFFF" fill-rule="evenodd" xlink:href="#path-1"></use>
                </g>
            </g>
            <g id="nav" transform="translate(0.000000, 150.000000)" fill="#000000" fill-rule="nonzero">
                <g id="dashboard" transform="translate(31.000000, 28.000000)">
                    <g id="transportation">
                        <path d="M15.2979961,2.71954687 C15.0590742,2.48066016 14.6840625,2.44543359 14.4047812,2.63573437 C13.3526953,3.35285156 8.07560156,6.95886328 7.50846094,7.52596875 C6.68601562,8.34844922 6.68601562,9.68663672 7.50846094,10.5091172 C7.91968359,10.9203047 8.45989453,11.1259336 9.00003516,11.1259336 C9.54017578,11.1259336 10.0803516,10.9203047 10.4916094,10.5091172 C11.0587148,9.94197656 14.6646914,4.66488281 15.3818437,3.61279687 C15.5720742,3.33355078 15.5368828,2.95850391 15.2979961,2.71954687 Z M9.49717969,9.51472266 C9.22306641,9.78890625 8.77696875,9.78890625 8.50285547,9.51472266 C8.22870703,9.24060938 8.22867187,8.79465234 8.50271484,8.52050391 C8.72307422,8.30274609 10.2213281,7.23420703 12.0647109,5.95286719 C10.7834062,7.79625 9.71486719,9.29443359 9.49717969,9.51472266 Z" id="Shape"></path>
                        <path d="M3.24249609,12.287918 L2.37448828,12.7113398 C1.73935547,11.577832 1.40625,10.3126641 1.40625,9.01754297 C1.40625,8.06864063 1.58122266,7.15981641 1.90054688,6.32165625 L2.89515234,6.79872656 C2.99323828,6.84576563 3.09677344,6.86805469 3.19876172,6.86805469 C3.46078125,6.86805469 3.71232422,6.72092578 3.83322656,6.46885547 C4.00113281,6.11873438 3.85347656,5.69872266 3.50332031,5.53078125 L2.52133594,5.05975781 C3.74185547,3.06921094 5.85358594,1.68141797 8.29691016,1.45606641 L8.29691016,2.51360156 C8.29691016,2.9019375 8.61169922,3.21672656 9.00003516,3.21672656 C9.38837109,3.21672656 9.70316016,2.9019375 9.70316016,2.51360156 L9.70316016,1.45553906 C10.5408633,1.53179297 11.3514258,1.74512109 12.1208906,2.09246484 C12.4747383,2.25225 12.8912344,2.09478516 13.0510195,1.7409375 C13.2108047,1.38698437 13.0534102,0.970558594 12.699457,0.810773438 C11.5334648,0.284449219 10.288793,0.0175429687 9,0.0175429687 C6.59601563,0.0175429687 4.33592578,0.953683594 2.63601563,2.65355859 C0.936175781,4.35346875 0,6.61355859 0,9.01754297 C0,10.7939883 0.527273438,12.521707 1.52483203,14.0137734 C1.65919922,14.2146914 1.88135156,14.3261719 2.10979688,14.3261719 C2.21364844,14.3261719 2.31883594,14.3031445 2.41766016,14.2549453 L3.85906641,13.5518203 C4.20809766,13.3815586 4.35301172,12.9606328 4.18275,12.6116016 C4.01248828,12.2626055 3.59152734,12.1177266 3.24249609,12.287918 Z" id="Path"></path>
                        <path d="M17.2067344,5.31812109 C17.0469844,4.96420312 16.6306289,4.80670312 16.2765703,4.96655859 C15.9226523,5.12634375 15.7652578,5.54276953 15.925043,5.8966875 C16.3687852,6.87958594 16.59375,7.92959766 16.59375,9.01754297 C16.59375,10.3145977 16.2595547,11.5818047 15.6225586,12.7166133 L14.7163359,12.2850703 C14.365793,12.1181484 13.9462031,12.2669648 13.7792109,12.6176133 C13.6122539,12.9681914 13.7611406,13.3877812 14.1117539,13.5547383 L15.5883164,14.2578633 C15.6854531,14.3040938 15.7884258,14.326207 15.8902383,14.326207 C16.1187539,14.326207 16.3409414,14.2145859 16.4751328,14.0138086 C17.4727266,12.521707 18,10.7939883 18,9.01754297 C18,7.72875 17.7330937,6.48407812 17.2067344,5.31812109 Z" id="Path"></path>
                    </g>
                </g>
            </g>
        </g>
    </g>
</svg>