<?xml version="1.0" encoding="UTF-8"?>
<svg width="18px" height="18px" viewBox="0 0 18 18" version="1.1" xmlns="http://www.w3.org/2000/svg" xmlns:xlink="http://www.w3.org/1999/xlink">
    <title>target</title>
    <defs>
        <rect id="path-1" x="209" y="0" width="816" height="143"></rect>
        <filter x="-0.1%" y="-0.3%" width="100.1%" height="101.4%" filterUnits="objectBoundingBox" id="filter-2">
            <feOffset dx="0" dy="1" in="SourceAlpha" result="shadowOffsetOuter1"></feOffset>
            <feColorMatrix values="0 0 0 0 0.898039216   0 0 0 0 0.898039216   0 0 0 0 0.898039216  0 0 0 1 0" type="matrix" in="shadowOffsetOuter1"></feColorMatrix>
        </filter>
    </defs>
    <g id="Page-1" stroke="none" stroke-width="1" fill="none" fill-rule="evenodd">
        <g id="Desktop" transform="translate(-363.000000, -35.000000)">
            <g id="bg">
                <g id="Rectangle">
                    <use fill="black" fill-opacity="1" filter="url(#filter-2)" xlink:href="#path-1"></use>
                    <use fill="#FFFFFF" fill-rule="evenodd" xlink:href="#path-1"></use>
                </g>
            </g>
            <g id="intents" transform="translate(334.000000, 30.000000)">
                <circle id="Oval" fill="#E3E3E3" cx="38" cy="14" r="14"></circle>
                <g id="target" transform="translate(29.000000, 5.000000)" fill="#000000" fill-rule="nonzero">
                    <path d="M9.52734375,6.41633203 L9.52734375,5.30859375 L8.47265625,5.30859375 L8.47265625,6.41633203 C7.44103125,6.62656641 6.62660156,7.44103125 6.41633203,8.47265625 L5.30859375,8.47265625 L5.30859375,9.52734375 L6.41633203,9.52734375 C6.62656641,10.5589688 7.44103125,11.3733984 8.47265625,11.583668 L8.47265625,12.6914062 L9.52734375,12.6914062 L9.52734375,11.583668 C10.5589688,11.3734336 11.3733984,10.5589688 11.583668,9.52734375 L12.6914062,9.52734375 L12.6914062,8.47265625 L11.583668,8.47265625 C11.3733984,7.44103125 10.5589688,6.62656641 9.52734375,6.41633203 Z M9,10.5820312 C8.12766797,10.5820312 7.41796875,9.87233203 7.41796875,9 C7.41796875,8.12766797 8.12766797,7.41796875 9,7.41796875 C9.87233203,7.41796875 10.5820312,8.12766797 10.5820312,9 C10.5820312,9.87233203 9.87233203,10.5820312 9,10.5820312 Z" id="Shape"></path>
                    <path d="M18,8.47265625 L16.8924375,8.47265625 C16.6343555,4.52569922 13.4807695,1.36606641 9.52734375,1.1075625 L9.52734375,0 L8.47265625,0 L8.47265625,1.1075625 C4.52562891,1.36564453 1.36606641,4.51926563 1.1075625,8.47265625 L0,8.47265625 L0,9.52734375 L1.1075625,9.52734375 C1.36564453,13.4743359 4.51923047,16.6339336 8.47265625,16.8924375 L8.47265625,18 L9.52734375,18 L9.52734375,16.8924375 C13.4743008,16.6343555 16.6339336,13.4807695 16.8924375,9.52734375 L18,9.52734375 L18,8.47265625 Z M9.52734375,15.8353945 L9.52734375,14.8007812 L8.47265625,14.8007812 L8.47265625,15.8353945 C5.11203516,15.578543 2.42145703,12.8879648 2.16460547,9.52734375 L3.19921875,9.52734375 L3.19921875,8.47265625 L2.16460547,8.47265625 C2.42145703,5.11203516 5.11203516,2.42145703 8.47265625,2.16460547 L8.47265625,3.19921875 L9.52734375,3.19921875 L9.52734375,2.16460547 C12.8879648,2.42145703 15.578543,5.11203516 15.8353945,8.47265625 L14.8007812,8.47265625 L14.8007812,9.52734375 L15.8353945,9.52734375 C15.578543,12.8879648 12.8879648,15.578543 9.52734375,15.8353945 Z" id="Shape"></path>
                    <polygon id="Path" points="8.47265625 8.47265625 9.52734375 8.47265625 9.52734375 9.52734375 8.47265625 9.52734375"></polygon>
                </g>
            </g>
        </g>
    </g>
</svg>