<?xml version="1.0" encoding="UTF-8"?>
<svg width="18px" height="21px" viewBox="0 0 18 21" version="1.1" xmlns="http://www.w3.org/2000/svg" xmlns:xlink="http://www.w3.org/1999/xlink">
    <title>animals</title>
    <defs>
        <rect id="path-1" x="209" y="0" width="816" height="143"></rect>
        <filter x="-0.1%" y="-0.3%" width="100.1%" height="101.4%" filterUnits="objectBoundingBox" id="filter-2">
            <feOffset dx="0" dy="1" in="SourceAlpha" result="shadowOffsetOuter1"></feOffset>
            <feColorMatrix values="0 0 0 0 0.898039216   0 0 0 0 0.898039216   0 0 0 0 0.898039216  0 0 0 1 0" type="matrix" in="shadowOffsetOuter1"></feColorMatrix>
        </filter>
    </defs>
    <g id="Page-1" stroke="none" stroke-width="1" fill="none" fill-rule="evenodd">
        <g id="Desktop" transform="translate(-851.000000, -33.000000)">
            <g id="bg">
                <g id="Rectangle">
                    <use fill="black" fill-opacity="1" filter="url(#filter-2)" xlink:href="#path-1"></use>
                    <use fill="#FFFFFF" fill-rule="evenodd" xlink:href="#path-1"></use>
                </g>
            </g>
            <g id="intents-copy-3" transform="translate(829.000000, 30.000000)">
                <circle id="Oval" fill="#E3E3E3" cx="31" cy="14" r="14"></circle>
                <g id="animals" transform="translate(22.000000, 3.000000)" fill="#000000" fill-rule="nonzero">
                    <path d="M16.7651366,5.54364317 C16.5329207,5.31138767 16.156348,5.31142731 15.9240925,5.54360352 L13.5512247,7.91635242 C13.2961322,6.11698678 11.9912511,4.65081938 10.2781189,4.15994273 L13.4227665,1.01525551 C13.655022,0.783 13.655022,0.40646696 13.4227665,0.174211454 C13.1905507,-0.0580440529 12.813978,-0.0580440529 12.5817225,0.174211454 L9.01859471,3.73737885 L5.48544053,0.204264317 C5.25322467,-0.0279515419 4.87665198,-0.0279515419 4.64439648,0.204264317 C4.41214097,0.436519824 4.41214097,0.813052863 4.64439648,1.04530837 L7.75907048,4.15994273 C6.04601762,4.65077974 4.74117621,6.11690749 4.48600441,7.91619383 L2.11353304,5.54360352 C1.88135683,5.31134802 1.50478414,5.31134802 1.27248899,5.54356388 C1.04027313,5.77581938 1.04023348,6.15235242 1.27248899,6.38460793 L2.85506167,7.96725991 L15.1825242,7.96725991 L16.7651366,6.38468722 C16.9973921,6.15243172 16.9973921,5.77589868 16.7651366,5.54364317 Z" id="Path"></path>
                    <path d="M17.4029075,12.0739559 L14.3413612,12.0739559 L14.3413612,9.15668722 L9.61346696,9.15668722 L9.61346696,18.5793304 C10.7783921,18.4491674 11.8308767,17.9416388 12.6455154,17.1819119 L15.5889119,20.1254273 C15.7050396,20.2415551 15.8572467,20.2995991 16.0094141,20.2995991 C16.1615815,20.2995991 16.3138282,20.2415551 16.4299163,20.1254273 C16.6621718,19.8932115 16.6621718,19.5166388 16.4299163,19.2843833 L13.4222511,16.2765991 C14.0020573,15.4244537 14.3413612,14.3961145 14.3413612,13.2899868 L14.3413612,13.2633833 L17.4029075,13.2633833 C17.731348,13.2633833 17.9976211,12.9971498 17.9976211,12.6686696 C17.9976211,12.3402687 17.731348,12.0739559 17.4029075,12.0739559 Z" id="Path"></path>
                    <path d="M3.69598678,12.0739559 L0.597132159,12.0739559 C0.26869163,12.0739559 0.0024185022,12.3402687 0.0024185022,12.6686696 C0.0024185022,12.9971498 0.26869163,13.2633833 0.597132159,13.2633833 L3.69598678,13.2633833 L3.69598678,13.2899868 C3.69598678,14.3865595 4.02942291,15.4066916 4.60007048,16.2544361 L1.570163,19.2843436 C1.33790749,19.5165991 1.33790749,19.8931322 1.570163,20.1254273 C1.68629075,20.2415551 1.8384978,20.2995991 1.9906652,20.2995991 C2.1428326,20.2995991 2.2950793,20.2415551 2.4111674,20.1254273 L5.37256388,17.1639912 C6.18985903,17.9336696 7.24987665,18.4481762 8.424,18.5793304 L8.424,9.15668722 L3.69598678,9.15668722 L3.69598678,12.0739559 Z" id="Path"></path>
                </g>
            </g>
        </g>
    </g>
</svg>