<?xml version="1.0" encoding="UTF-8"?>
<svg width="19px" height="18px" viewBox="0 0 19 18" version="1.1" xmlns="http://www.w3.org/2000/svg" xmlns:xlink="http://www.w3.org/1999/xlink">
    <title>earth-grid</title>
    <defs>
        <rect id="path-1" x="209" y="0" width="816" height="143"></rect>
        <filter x="-0.1%" y="-0.3%" width="100.1%" height="101.4%" filterUnits="objectBoundingBox" id="filter-2">
            <feOffset dx="0" dy="1" in="SourceAlpha" result="shadowOffsetOuter1"></feOffset>
            <feColorMatrix values="0 0 0 0 0.898039216   0 0 0 0 0.898039216   0 0 0 0 0.898039216  0 0 0 1 0" type="matrix" in="shadowOffsetOuter1"></feColorMatrix>
        </filter>
    </defs>
    <g id="Page-1" stroke="none" stroke-width="1" fill="none" fill-rule="evenodd">
        <g id="Desktop" transform="translate(-519.000000, -35.000000)">
            <g id="bg">
                <g id="Rectangle">
                    <use fill="black" fill-opacity="1" filter="url(#filter-2)" xlink:href="#path-1"></use>
                    <use fill="#FFFFFF" fill-rule="evenodd" xlink:href="#path-1"></use>
                </g>
            </g>
            <g id="intents-copy" transform="translate(491.333333, 30.000000)">
                <circle id="Oval" fill="#E3E3E3" cx="37" cy="14" r="14"></circle>
                <g id="earth-grid" transform="translate(28.000000, 5.000000)" fill="#000000" fill-rule="nonzero">
                    <path d="M9,0 C4.02949219,0 0,4.02949219 0,9 C0,13.9705078 4.02949219,18 9,18 C13.9705078,18 18,13.9705078 18,9 C17.9944336,4.03183594 13.9681641,0.005566425 9,0 Z M16.7837402,12.1529297 L14.2242188,12.5945801 C14.5171875,11.5201172 14.6753906,10.4134277 14.695166,9.3 L17.3925293,9.3 C17.3586914,10.2793945 17.1525879,11.245166 16.7837402,12.1529297 L16.7837402,12.1529297 Z M0.607470713,9.3 L3.30483398,9.3 C3.32460938,10.4134277 3.4828125,11.5201172 3.77578125,12.5945801 L1.21625978,12.1529297 C0.8474121,11.245166 0.641308575,10.2793945 0.607470713,9.3 Z M1.21625978,5.84707031 L3.77578125,5.40541991 C3.4828125,6.47988281 3.32460938,7.58657227 3.30483398,8.7 L0.607470713,8.7 C0.641308575,7.72060545 0.8474121,6.75483398 1.21625978,5.84707031 Z M9.3,4.81684571 C10.3779785,4.83061523 11.4533203,4.92875978 12.5160645,5.11054688 L13.575,5.2932129 C13.9003418,6.40034179 14.0753906,7.54614259 14.095459,8.7 L9.3,8.7 L9.3,4.81684571 Z M12.6183105,4.51918946 C11.521875,4.33183594 10.4122559,4.23061523 9.3,4.21684571 L9.3,0.616845712 C11.019873,0.782080088 12.5138672,2.3567871 13.3605469,4.64853518 L12.6183105,4.51918946 Z M8.7,4.21684571 C7.58774415,4.23061522 6.47841795,4.33183594 5.38198241,4.51918946 L4.63945313,4.64765625 C5.48613281,2.35532227 6.98012696,0.780029287 8.7,0.615527325 L8.7,4.21684571 Z M5.48422853,5.11054688 C6.54682616,4.92875978 7.62202148,4.83061523 8.7,4.81684571 L8.7,8.7 L3.90454103,8.7 C3.92460938,7.54614259 4.09965821,6.40034179 4.425,5.2932129 L5.48422853,5.11054688 Z M3.90454103,9.3 L8.7,9.3 L8.7,13.1831543 C7.62202148,13.1693848 6.54667969,13.0712402 5.48393554,12.8894531 L4.425,12.7067871 C4.09965821,11.5996582 3.92460938,10.4538574 3.90454103,9.3 L3.90454103,9.3 Z M5.38168946,13.4808105 C6.478125,13.6684571 7.58759768,13.7701172 8.7,13.7847656 L8.7,17.3847656 C6.98012696,17.2193848 5.48613281,15.6446777 4.63945313,13.3529297 L5.38168946,13.4808105 Z M9.3,13.7847656 C10.4122558,13.7701172 11.5215821,13.668457 12.6180176,13.4808105 L13.3605469,13.3523437 C12.5138672,15.6446777 11.019873,17.2199707 9.3,17.3844727 L9.3,13.7847656 Z M12.5157715,12.8894531 C11.4531738,13.0712402 10.3779785,13.1693848 9.3,13.1831543 L9.3,9.3 L14.095459,9.3 C14.0753906,10.4538574 13.9003418,11.5996582 13.575,12.7067871 L12.5157715,12.8894531 Z M14.695166,8.7 C14.6753906,7.58657227 14.5171875,6.47988281 14.2242188,5.40541991 L16.7837402,5.84707031 C17.1525879,6.75483398 17.3586914,7.72060545 17.3925293,8.7 L14.695166,8.7 Z M16.4802246,5.18583982 L14.0267578,4.7625 C13.5856933,3.32358398 12.7605469,2.03217773 11.6399414,1.02744143 C13.7354004,1.72675781 15.4731445,3.21958009 16.4802246,5.18583982 Z M6.36005858,1.02744143 C5.23945312,2.03217773 4.41430665,3.32358398 3.97324219,4.7625 L1.5197754,5.18583982 C2.52685545,3.21958009 4.2645996,1.72675781 6.36005858,1.02744143 Z M1.5197754,12.8141602 L3.97324219,13.2375 C4.41430665,14.676416 5.23945312,15.9678223 6.36005858,16.9725586 C4.2645996,16.2732422 2.52685545,14.7804199 1.5197754,12.8141602 Z M11.6399414,16.9725586 C12.7605469,15.9678223 13.5856933,14.676416 14.0267578,13.2375 L16.4802246,12.8141602 C15.4731445,14.7804199 13.7354004,16.2732422 11.6399414,16.9725586 Z" id="Shape"></path>
                </g>
            </g>
        </g>
    </g>
</svg>