<?xml version="1.0" encoding="UTF-8"?>
<svg width="32px" height="30px" viewBox="0 0 32 30" version="1.1" xmlns="http://www.w3.org/2000/svg" xmlns:xlink="http://www.w3.org/1999/xlink">
    <title>brain</title>
    <defs>
        <rect id="path-1" x="0" y="0" width="208" height="1024"></rect>
        <filter x="-0.2%" y="-0.0%" width="101.0%" height="100.1%" filterUnits="objectBoundingBox" id="filter-2">
            <feOffset dx="1" dy="0" in="SourceAlpha" result="shadowOffsetOuter1"></feOffset>
            <feColorMatrix values="0 0 0 0 0.898039216   0 0 0 0 0.898039216   0 0 0 0 0.898039216  0 0 0 1 0" type="matrix" in="shadowOffsetOuter1"></feColorMatrix>
        </filter>
    </defs>
    <g id="Page-1" stroke="none" stroke-width="1" fill="none" fill-rule="evenodd">
        <g id="Desktop" transform="translate(-87.000000, -50.000000)">
            <g id="bg">
                <g id="Rectangle">
                    <use fill="black" fill-opacity="1" filter="url(#filter-2)" xlink:href="#path-1"></use>
                    <use fill="#FFFFFF" fill-rule="evenodd" xlink:href="#path-1"></use>
                </g>
            </g>
            <g id="logo" transform="translate(68.000000, 30.000000)">
                <circle id="Oval" fill="#D8D8D8" opacity="0.238002232" cx="35" cy="34" r="34"></circle>
                <g id="brain" transform="translate(19.000000, 20.000000)" fill="#000000" fill-rule="nonzero">
                    <path d="M31.4053281,10.6458739 C31.4020995,9.05824364 30.2331647,7.71402533 28.6613541,7.49043691 C28.1387993,4.1134206 25.2411962,1.61577469 21.8240416,1.59688109 C21.6883067,1.59688109 21.545652,1.6128499 21.4067233,1.62083431 C20.9051126,0.730827914 20.0069154,0.135554647 18.9918018,0.0203636992 C17.9766881,-0.0948272492 16.9679478,0.284054534 16.2796704,1.0390373 C15.335005,0.363331685 14.2026477,0 13.0411956,0 C11.2360619,0.00901805062 9.54489422,0.883705378 8.49434282,2.35167355 C7.28809275,1.93071213 5.95313353,2.11375099 4.90470833,2.84385532 C3.85628314,3.57395966 3.22157823,4.76255928 3.19802053,6.03993658 C1.63041389,6.56682361 0.742755402,8.22185912 1.17104613,9.81922183 C0.40656723,10.9217406 -0.00209017895,12.2318591 -7.97815457e-06,13.5734893 C-0.00198155378,15.6592172 0.975112129,17.6249435 2.63898877,18.8826318 C4.3028654,20.14032 6.46057987,20.5441271 8.46666355,19.9732564 C9.16213954,21.4691054 10.5453866,22.5301259 12.1703671,22.8141844 C13.7953477,23.098243 15.4565132,22.5694083 16.6182092,21.3982066 C17.2727844,21.6206072 17.9537323,21.756081 18.6435867,21.801153 C18.7420611,23.7919314 19.5074994,24.9853339 22.7204242,26.0563088 C24.8064832,26.7514843 25.3632624,28.1631272 25.5091109,28.9429375 C25.6082042,29.4477 26.0518548,29.8109305 26.5662461,29.8084597 L28.1902742,29.8084597 C28.4837495,29.8089497 28.7644151,29.68828 28.965955,29.47495 C29.167495,29.26162 29.2720304,28.9745544 29.2548616,28.6815813 C29.1755498,27.4040764 28.8215745,24.4461203 27.2795197,22.5681882 C29.0543075,21.5982855 30.3133597,19.8976211 30.7229276,17.9170058 C32.1734966,16.2281829 32.3427655,13.7872041 31.1391813,11.9143298 C31.3132283,11.514008 31.4037899,11.0823915 31.4053281,10.6458739 Z M29.8478368,17.3059327 L29.835594,17.3187077 C29.0781973,18.1509351 28.0061051,18.6268197 26.8808317,18.6302794 C26.2509227,18.6324654 25.6298897,18.4817736 25.0710331,18.1911371 C24.8174261,18.0602461 24.5794036,17.9011478 24.3614856,17.7168634 C25.0726833,16.9048899 25.2216527,15.7432234 24.7383496,14.7780699 C24.652773,14.6080578 24.4829965,14.4966146 24.2929734,14.48572 C24.1029502,14.4748254 23.9215494,14.5661346 23.8171028,14.7252522 C23.7126562,14.8843698 23.7010319,15.0871221 23.7866084,15.2571342 C23.8971809,15.4780137 23.9542534,15.721803 23.9532164,15.9688109 C23.9539093,16.71007 23.4444127,17.3543497 22.7229531,17.5245304 C22.0014934,17.6947112 21.2577768,17.3460443 20.9271267,16.6826168 C20.8415501,16.5126046 20.6717737,16.4011614 20.4817505,16.3902668 C20.2917273,16.3793722 20.1103264,16.4706814 20.0058799,16.629799 C19.9014333,16.7889166 19.889809,16.9916689 19.9753856,17.1616811 C20.6166167,18.4548049 22.175727,18.9956627 23.4800073,18.3774399 C23.8114829,18.6826783 24.1839592,18.9401331 24.5866459,19.1423459 C26.0299109,19.8862 27.7447836,19.8816334 29.1840665,19.1301032 C28.3507959,20.8031215 26.7634827,21.9730544 24.9187971,22.2738298 C24.6438842,22.3168008 24.4484529,22.5642571 24.4703592,22.8416445 C24.4922656,23.1190318 24.7241172,23.332744 25.0023673,23.3320296 C25.0308997,23.3321073 25.0593885,23.3297926 25.0875342,23.3251098 C25.4871567,23.2596865 25.880133,23.1586813 26.2617741,23.0232993 C27.7734882,24.612196 28.1152208,27.5275686 28.1902742,28.7459888 L26.5556003,28.7459888 C26.4033643,27.9331763 25.7571597,25.9455917 23.0568338,25.045483 C20.3117952,24.1304702 19.7848244,23.2995597 19.7076418,21.8032821 L19.7363857,21.8032821 C20.3384862,21.7618304 20.9338918,21.6518214 21.5110529,21.4753892 C21.7920956,21.3891067 21.9499799,21.0913309 21.8636975,20.8102882 C21.777415,20.5292456 21.4796392,20.3713612 21.1985965,20.4576437 C20.6954121,20.6114228 20.1762056,20.7067982 19.6512187,20.7418885 C18.6334792,20.8212366 17.6110555,20.6672176 16.6618573,20.291568 C16.4516593,20.2127767 16.2146445,20.2716072 16.0656884,20.4395457 C15.133736,21.521916 13.6942047,22.0234069 12.2914634,21.754376 C10.8887221,21.4853451 9.73687131,20.4868546 9.27149162,19.1364907 L9.27149162,19.1332969 C8.88298312,18.0194602 9.01016932,16.7905136 9.61854711,15.7798467 C9.77009261,15.5279078 9.68870768,15.2008191 9.43676881,15.0492736 C9.18482995,14.897728 8.85774122,14.979113 8.70619571,15.2310519 C8.47032333,15.6240237 8.28926496,16.0473887 8.16804678,16.4893942 C7.71415415,16.5497098 7.25650229,16.4093165 6.91451354,16.1048494 C6.5725248,15.8003823 6.3801266,15.3620464 6.38752437,14.9042235 L6.38752437,14.8829318 C6.3871178,14.7428536 6.33056186,14.6087874 6.23051577,14.5107423 C6.13046973,14.4126971 5.99528848,14.3588608 5.85523067,14.361284 C5.55929496,14.3665168 5.32230922,14.6082423 5.32293697,14.9042235 C5.32469679,16.3733824 6.51524654,17.5639322 7.98440546,17.565692 L8.00250344,17.565692 C7.9977128,17.6551173 7.98440546,17.7434781 7.98440546,17.8318389 C7.98556863,18.2145034 8.03039382,18.5957854 8.11801118,18.9682859 C6.43795185,19.4230478 4.64193673,19.0696337 3.25943628,18.0122311 C1.87693583,16.9548285 1.06559056,15.3140084 1.06457888,13.5734893 C1.06299025,12.6638676 1.28606053,11.7679296 1.71398571,10.9652502 C1.95856203,11.2955309 2.26476351,11.575342 2.61569123,11.7892408 C2.77876219,11.8870834 2.98164438,11.8904963 3.14791402,11.798194 C3.31418367,11.7058917 3.41858046,11.5318971 3.42177914,11.3417522 C3.42497781,11.1516073 3.32649242,10.9741997 3.16342144,10.8763571 C2.34120893,10.3846767 1.94861822,9.40441728 2.20413306,8.48111064 C2.4596479,7.55780394 3.30034015,6.91884184 4.25834958,6.91981806 C4.93009765,6.91733635 5.56278255,7.23526053 5.96168941,7.77574633 C6.13807605,8.01092848 6.47171843,8.05859166 6.70690058,7.88220507 C6.94208274,7.70581843 6.98974591,7.37217605 6.81335932,7.13699389 C6.21729956,6.33088204 5.27420544,5.85528608 4.27165692,5.85523067 C4.41067351,4.34891752 5.67325196,3.19587783 7.18596491,3.19376218 C7.4432916,3.19531261 7.69926674,3.23111333 7.9471449,3.30022092 C7.8188017,3.58013162 7.71376126,3.87015 7.63309162,4.16732736 C7.59729859,4.30398606 7.61729745,4.44926807 7.68868325,4.57117301 C7.760069,4.69307795 7.87698598,4.78160611 8.01368161,4.81725796 C8.1503403,4.85305099 8.29562231,4.8330521 8.41752725,4.76166633 C8.53943219,4.69028055 8.62796035,4.57336357 8.66361222,4.43666797 C8.76883768,4.03124737 8.93007812,3.64247868 9.14267654,3.28159064 C9.9643474,1.91094735 11.4431415,1.06998923 13.0411956,1.06458662 C13.9963811,1.06402623 14.9270516,1.36691822 15.698938,1.92956465 C15.5256584,2.32849719 15.436332,2.758822 15.4365172,3.19376218 C15.4365172,3.48773987 15.6748333,3.72605588 15.9688109,3.72605588 C16.2627886,3.72605588 16.5011046,3.48773987 16.5011046,3.19376218 C16.5011046,2.01785142 17.4543686,1.06458662 18.6302794,1.06458662 C19.8061902,1.06458662 20.7594542,2.01785142 20.7594542,3.19376218 C20.7594542,3.48773987 20.9977702,3.72605588 21.2917479,3.72605588 C21.5857256,3.72605588 21.8240416,3.48773987 21.8240416,3.19376218 C21.823129,3.01529666 21.8071029,2.83722904 21.7761352,2.66146849 L21.8240416,2.66146849 C24.6668437,2.67640037 27.0934385,4.71942432 27.5925084,7.51811618 C27.1223554,7.60846478 26.6788251,7.80429516 26.2953086,8.0908642 C26.0601265,8.26725079 26.0124633,8.60089322 26.1888499,8.83607537 C26.3652365,9.07125753 26.6988789,9.1189207 26.9340611,8.94253411 C27.7402644,8.33707063 28.8606085,8.38007906 29.6180217,9.0455676 C30.375435,9.71105613 30.562241,10.8165534 30.0655449,11.6939602 C29.8444465,12.0790909 29.5098313,12.3865651 29.1074162,12.574374 C28.8410724,12.6990205 28.7262042,13.0159808 28.8508507,13.2823246 C28.9754972,13.5486684 29.2924575,13.6635367 29.5588013,13.5388902 C29.8956738,13.3781325 30.2019021,13.1598098 30.4637006,12.8937502 C31.1796603,14.3524115 30.9344152,16.1001255 29.844643,17.3054004 L29.8478368,17.3059327 Z" id="Shape"></path>
                    <path d="M20.7594542,10.1135802 L19.5639225,10.1135802 L18.6095199,6.7734373 C18.5458403,6.53869956 18.3288081,6.37879273 18.0857429,6.38752437 C17.8431978,6.39297958 17.6350272,6.56174883 17.5795316,6.79792281 L16.0108621,13.4670305 L14.361284,5.21647823 C14.3109085,4.96839488 14.0927824,4.79010965 13.8396361,4.79010965 C13.5864899,4.79010965 13.3683638,4.96839488 13.3179883,5.21647823 L12.3385679,10.1135802 L9.04899285,10.1135802 C8.75501519,10.1135802 8.51669916,10.3518963 8.51669916,10.6458739 C8.51669916,10.9398516 8.75501519,11.1781676 9.04899285,11.1781676 L12.7750487,11.1781676 C13.0280312,11.1782193 13.2461001,11.0002039 13.2966966,10.7523327 L13.8396361,8.03763483 L15.4471631,16.0752697 C15.4970499,16.3198446 15.7101863,16.496905 15.9597619,16.5011047 L15.9688109,16.5011047 C16.2159447,16.5012464 16.4306714,16.3312728 16.487265,16.0907062 L18.1480213,9.03195945 L18.6510389,10.7922547 C18.7163551,11.020611 18.9250593,11.1780621 19.1625731,11.1781676 L20.7594542,11.1781676 C21.0534319,11.1781676 21.2917479,10.9398516 21.2917479,10.6458739 C21.2917479,10.3518963 21.0534319,10.1135802 20.7594542,10.1135802 L20.7594542,10.1135802 Z" id="Shape"></path>
                    <path d="M23.9532164,10.1135802 L22.888629,10.1135802 C22.5946513,10.1135802 22.3563353,10.3518963 22.3563353,10.6458739 C22.3563353,10.9398516 22.5946513,11.1781676 22.888629,11.1781676 L23.9532164,11.1781676 C24.247194,11.1781676 24.4855101,10.9398516 24.4855101,10.6458739 C24.4855101,10.3518963 24.247194,10.1135802 23.9532164,10.1135802 Z" id="Shape"></path>
                </g>
            </g>
        </g>
    </g>
</svg>