<?xml version="1.0" encoding="UTF-8"?>
<svg width="18px" height="18px" viewBox="0 0 18 18" version="1.1" xmlns="http://www.w3.org/2000/svg" xmlns:xlink="http://www.w3.org/1999/xlink">
    <title>interface</title>
    <defs>
        <rect id="path-1" x="0" y="0" width="208" height="1024"></rect>
        <filter x="-0.2%" y="-0.0%" width="101.0%" height="100.1%" filterUnits="objectBoundingBox" id="filter-2">
            <feOffset dx="1" dy="0" in="SourceAlpha" result="shadowOffsetOuter1"></feOffset>
            <feColorMatrix values="0 0 0 0 0.898039216   0 0 0 0 0.898039216   0 0 0 0 0.898039216  0 0 0 1 0" type="matrix" in="shadowOffsetOuter1"></feColorMatrix>
        </filter>
    </defs>
    <g id="Page-1" stroke="none" stroke-width="1" fill="none" fill-rule="evenodd">
        <g id="Desktop" transform="translate(-31.000000, -317.000000)">
            <g id="bg">
                <g id="Rectangle">
                    <use fill="black" fill-opacity="1" filter="url(#filter-2)" xlink:href="#path-1"></use>
                    <use fill="#FFFFFF" fill-rule="evenodd" xlink:href="#path-1"></use>
                </g>
            </g>
            <g id="nav" transform="translate(0.000000, 150.000000)" fill="#000000" fill-rule="nonzero">
                <g id="settings" transform="translate(31.000000, 167.000000)">
                    <g id="interface">
                        <path d="M9.56482031,18 L8.43514453,18 C7.52146875,18 6.77808984,17.2566563 6.77808984,16.3429805 L6.77808984,15.9607969 C6.38964844,15.8366953 6.01224609,15.6800391 5.64967969,15.4924102 L5.37883594,15.7632539 C4.72285547,16.420043 3.67207031,16.4007773 3.03514453,15.7630078 L2.23671094,14.9646094 C1.59866016,14.3272617 1.58030859,13.2768281 2.23692187,12.620918 L2.50755469,12.3502852 C2.31992578,11.9877188 2.16330469,11.6103867 2.03916797,11.221875 L1.65701953,11.221875 C0.743378906,11.221875 -9.99200722e-16,10.4785313 -9.99200722e-16,9.56485547 L-9.99200722e-16,8.43514453 C-9.99200722e-16,7.52146875 0.743378906,6.778125 1.65705469,6.778125 L2.03920312,6.778125 C2.16333984,6.38964844 2.31996094,6.01228125 2.50758984,5.64971484 L2.23674609,5.37890625 C1.58051953,4.72338281 1.598625,3.67284375 2.23695703,3.03521484 L3.03546094,2.23674609 C3.67386328,1.59746484 4.72440234,1.58150391 5.37911719,2.23695703 L5.64971484,2.50755469 C6.01228125,2.31996094 6.38968359,2.16330469 6.778125,2.03916797 L6.778125,1.65701953 C6.778125,0.74334375 7.52146875,1.99840144e-15 8.43517969,1.99840144e-15 L9.56485547,1.99840144e-15 C10.4785312,1.99840144e-15 11.221875,0.74334375 11.221875,1.65701953 L11.221875,2.03920313 C11.6103164,2.16330469 11.9877187,2.31996094 12.3502852,2.50758984 L12.6211289,2.23674609 C13.2771094,1.57995703 14.3278945,1.59922266 14.9648203,2.23699219 L15.7632539,3.03539063 C16.4013047,3.67273828 16.4196562,4.72317188 15.763043,5.37908203 L15.4924102,5.64971484 C15.6800391,6.01228125 15.8366602,6.38961328 15.9607969,6.778125 L16.3429453,6.778125 C17.2566211,6.778125 18,7.52146875 18,8.43514453 L18,9.56485547 C18,10.4785313 17.2566211,11.221875 16.3429453,11.221875 L15.9607969,11.221875 C15.8366602,11.6103516 15.6800391,11.9877188 15.4924102,12.3502852 L15.7632539,12.6211289 C16.4194805,13.2766523 16.401375,14.3271914 15.763043,14.9648203 L14.9645391,15.7632891 C14.3261367,16.4025703 13.2755977,16.4185313 12.6208828,15.7630781 L12.3502852,15.4924805 C11.9877188,15.6800742 11.6103164,15.8367305 11.221875,15.9608672 L11.221875,16.3430508 C11.221875,17.2566563 10.4785313,18 9.56482031,18 Z M5.82598828,14.3848828 C6.32967187,14.6827617 6.87178125,14.9077969 7.43723437,15.0537305 C7.67010937,15.1138125 7.8328125,15.3238359 7.8328125,15.5643398 L7.8328125,16.3429805 C7.8328125,16.6751016 8.10305859,16.9453125 8.43517969,16.9453125 L9.56485547,16.9453125 C9.89697656,16.9453125 10.1672227,16.6751016 10.1672227,16.3429805 L10.1672227,15.5643398 C10.1672227,15.3238359 10.3299258,15.1138125 10.5628008,15.0537305 C11.1282539,14.9077969 11.6703633,14.6827617 12.1740469,14.3848828 C12.381293,14.2623281 12.6451406,14.2956562 12.8154023,14.465918 L13.3669336,15.0174844 C13.6047305,15.2555625 13.9865977,15.250043 14.2185586,15.0177305 L15.0175547,14.2187695 C15.2489531,13.9876523 15.2566875,13.6057148 15.0177656,13.3671094 L14.4659883,12.815332 C14.2957617,12.6451055 14.2624336,12.3812227 14.3849531,12.1740117 C14.682832,11.6703633 14.907832,11.1282539 15.0537656,10.5627656 C15.1138828,10.3298906 15.3239062,10.1672227 15.564375,10.1672227 L16.3429805,10.1672227 C16.6751016,10.1672227 16.9453477,9.89701172 16.9453477,9.56489062 L16.9453477,8.43517969 C16.9453477,8.10305859 16.6751016,7.83284766 16.3429805,7.83284766 L15.564375,7.83284766 C15.3238711,7.83284766 15.1138828,7.67014453 15.0537656,7.43730469 C14.907832,6.87181641 14.6827969,6.32970703 14.3849531,5.82605859 C14.2624336,5.61884766 14.2957617,5.35496484 14.4659883,5.18473828 L15.0175547,4.63317187 C15.2559844,4.39502344 15.2497617,4.01322656 15.0177656,3.78151172 L14.2188398,2.98258594 C13.9872656,2.75069531 13.6053281,2.74391016 13.3671797,2.982375 L12.8154375,3.53415234 C12.6452109,3.70441406 12.3812578,3.73774219 12.174082,3.6151875 C11.6703984,3.31730859 11.1282891,3.09227344 10.5628359,2.94633984 C10.3299609,2.88625781 10.1672578,2.67623437 10.1672578,2.43573047 L10.1672578,1.65701953 C10.1672578,1.32489844 9.89701172,1.0546875 9.56489062,1.0546875 L8.43521484,1.0546875 C8.10309375,1.0546875 7.83284766,1.32489844 7.83284766,1.65701953 L7.83284766,2.43566016 C7.83284766,2.67616406 7.67014453,2.8861875 7.43726953,2.94626953 C6.87181641,3.09220312 6.32970703,3.31723828 5.82602344,3.61511719 C5.61874219,3.73763672 5.35489453,3.70430859 5.18466797,3.53408203 L4.63313672,2.98251562 C4.39533984,2.7444375 4.0134375,2.74995703 3.78151172,2.98226953 L2.98251562,3.78123047 C2.75111719,4.01234766 2.74338281,4.39425 2.98230469,4.63289062 L3.53408203,5.18466797 C3.70430859,5.35489453 3.73763672,5.61877734 3.61511719,5.82598828 C3.31723828,6.32963672 3.09223828,6.87174609 2.94630469,7.43723437 C2.8861875,7.67010937 2.67616406,7.83277734 2.43569531,7.83277734 L1.65705469,7.83277734 C1.32493359,7.8328125 1.0546875,8.10302344 1.0546875,8.43514453 L1.0546875,9.56485547 C1.0546875,9.89697656 1.32493359,10.1671875 1.65705469,10.1671875 L2.43566016,10.1671875 C2.67616406,10.1671875 2.88615234,10.3298906 2.94626953,10.5627305 C3.09220312,11.1282187 3.31723828,11.6703281 3.61508203,12.1739766 C3.73760156,12.3811875 3.70427344,12.6450703 3.53404687,12.8152969 L2.98248047,13.3668633 C2.74405078,13.6050117 2.75027344,13.9868086 2.98226953,14.2185234 L3.78119531,15.0174492 C4.01276953,15.2493398 4.39470703,15.256125 4.63285547,15.0176602 L5.18459766,14.4658828 C5.31003516,14.3404805 5.571,14.2340625 5.82598828,14.3848828 L5.82598828,14.3848828 Z" id="Shape"></path>
                        <path d="M9,12.9164062 C6.84045703,12.9164062 5.08359375,11.1595078 5.08359375,9 C5.08359375,6.84049219 6.84045703,5.08359375 9,5.08359375 C11.159543,5.08359375 12.9164062,6.84049219 12.9164062,9 C12.9164062,11.1595078 11.159543,12.9164062 9,12.9164062 Z M9,6.13828125 C7.42201172,6.13828125 6.13828125,7.42204687 6.13828125,9 C6.13828125,10.5779531 7.42204687,11.8617187 9,11.8617187 C10.5779531,11.8617187 11.8617187,10.5779531 11.8617187,9 C11.8617187,7.42204687 10.5779883,6.13828125 9,6.13828125 L9,6.13828125 Z" id="Shape"></path>
                    </g>
                </g>
            </g>
        </g>
    </g>
</svg>